<?xml version="1.0" encoding="UTF-8"?><svg xmlns="http://www.w3.org/2000/svg" xmlns:xlink="http://www.w3.org/1999/xlink" width="375" zoomAndPan="magnify" viewBox="0 0 375 374.999991" height="374.999991" preserveAspectRatio="xMidYMid meet" version="1.0"><defs><clipPath id="clip-0"><path d="M 54.433594 73 L 320.683594 73 L 320.683594 302 L 54.433594 302 Z M 54.433594 73 " clip-rule="nonzero"/></clipPath></defs><path fill="rgb(0%, 0%, 0%)" d="M 372.277344 192.113281 L 372.125 182.886719 L 369.554688 12.175781 L 369.480469 6.882812 L 364.183594 6.808594 L 192.523438 3.628906 L 182.421875 3.402344 L 12.175781 0.226562 L 0 0 L 0.226562 12.175781 L 3.402344 182.886719 L 3.554688 192.113281 L 6.808594 364.03125 L 6.882812 369.328125 L 12.175781 369.402344 L 182.421875 371.972656 L 192.523438 372.125 L 375.074219 374.925781 Z M 356.089844 182.886719 L 355.941406 192.113281 L 353.519531 353.519531 L 192.523438 355.941406 L 182.421875 356.089844 L 17.621094 358.585938 L 20.722656 192.113281 L 20.875 182.886719 L 23.824219 23.902344 L 182.421875 20.949219 L 192.523438 20.800781 L 358.585938 17.699219 Z M 356.089844 182.886719 " fill-opacity="1" fill-rule="nonzero"/><g clip-path="url(#clip-0)"><path fill="rgb(0%, 0%, 0%)" d="M 319.105469 238.320312 L 271.304688 190.546875 C 274.703125 181.222656 276.5625 171.167969 276.5625 160.683594 C 276.5625 112.425781 237.300781 73.167969 189.039062 73.167969 C 140.765625 73.167969 101.503906 112.429688 101.503906 160.683594 C 101.503906 170.425781 103.125 179.792969 106.082031 188.546875 L 56.304688 238.324219 C 55.035156 239.589844 54.542969 241.441406 55.007812 243.179688 C 55.476562 244.914062 56.835938 246.265625 58.570312 246.722656 L 101.953125 258.207031 L 109.640625 297.519531 C 109.996094 299.34375 111.328125 300.820312 113.101562 301.359375 C 113.582031 301.507812 114.078125 301.578125 114.566406 301.578125 C 115.882812 301.578125 117.160156 301.0625 118.117188 300.109375 L 171.765625 246.46875 C 177.351562 247.589844 183.125 248.1875 189.035156 248.1875 C 194.148438 248.1875 199.152344 247.722656 204.035156 246.875 L 257.289062 300.109375 C 258.246094 301.0625 259.527344 301.578125 260.84375 301.578125 C 261.328125 301.578125 261.824219 301.507812 262.304688 301.359375 C 264.078125 300.820312 265.414062 299.34375 265.765625 297.519531 L 273.453125 258.210938 L 316.835938 246.722656 C 318.574219 246.265625 319.933594 244.910156 320.398438 243.179688 C 320.871094 241.445312 320.378906 239.589844 319.105469 238.320312 Z M 160.574219 243.464844 L 117.6875 286.34375 L 111.207031 253.199219 C 110.835938 251.3125 109.425781 249.804688 107.566406 249.3125 L 69.578125 239.253906 L 110.175781 198.652344 C 113.925781 206.394531 118.785156 213.507812 124.546875 219.78125 C 124.75 220.003906 124.964844 220.214844 125.167969 220.433594 C 126.660156 222.023438 128.199219 223.566406 129.804688 225.042969 C 130.128906 225.34375 130.417969 225.679688 130.746094 225.976562 C 131.277344 226.457031 131.859375 226.859375 132.402344 227.328125 C 133.304688 228.089844 134.21875 228.835938 135.148438 229.566406 C 136.695312 230.78125 138.269531 231.949219 139.886719 233.050781 C 140.238281 233.289062 140.597656 233.515625 140.949219 233.753906 C 142.941406 235.070312 144.976562 236.3125 147.074219 237.460938 C 147.902344 237.910156 148.75 238.339844 149.597656 238.769531 C 151.105469 239.53125 152.628906 240.269531 154.1875 240.941406 C 155.972656 241.71875 157.792969 242.441406 159.636719 243.105469 C 159.953125 243.207031 160.253906 243.359375 160.574219 243.464844 Z M 129.742188 210.457031 C 129.449219 210.101562 129.152344 209.753906 128.867188 209.394531 C 127.746094 208.015625 126.691406 206.578125 125.667969 205.125 C 124.824219 203.90625 124.011719 202.652344 123.230469 201.378906 C 123.078125 201.132812 122.929688 200.882812 122.777344 200.636719 C 121.390625 198.332031 120.113281 195.929688 118.921875 193.441406 C 118.730469 193.042969 118.527344 192.652344 118.34375 192.246094 C 117.957031 191.40625 117.601562 190.542969 117.238281 189.6875 C 113.597656 180.722656 111.546875 170.941406 111.546875 160.683594 C 111.546875 117.964844 146.3125 83.203125 189.046875 83.203125 C 231.765625 83.203125 266.523438 117.960938 266.523438 160.683594 C 266.523438 171.296875 264.371094 181.410156 260.492188 190.632812 C 260.417969 190.808594 260.335938 190.976562 260.261719 191.152344 C 253.375 207.175781 241.246094 220.4375 226.03125 228.738281 C 225.96875 228.769531 225.90625 228.800781 225.847656 228.832031 C 221.632812 231.113281 217.179688 233.003906 212.542969 234.484375 C 212.28125 234.566406 212.023438 234.65625 211.761719 234.734375 C 204.570312 236.945312 196.945312 238.148438 189.042969 238.148438 C 165.257812 238.148438 143.972656 227.363281 129.742188 210.457031 Z M 267.847656 249.308594 C 265.984375 249.800781 264.574219 251.308594 264.203125 253.195312 L 257.726562 286.339844 L 215.480469 244.121094 C 215.695312 244.050781 215.902344 243.953125 216.117188 243.882812 C 218.519531 243.097656 220.886719 242.226562 223.195312 241.246094 C 223.683594 241.039062 224.15625 240.804688 224.644531 240.589844 C 226.726562 239.660156 228.78125 238.667969 230.777344 237.582031 C 231.425781 237.226562 232.058594 236.84375 232.703125 236.472656 C 234.488281 235.441406 236.242188 234.371094 237.941406 233.222656 C 238.695312 232.714844 239.429688 232.167969 240.171875 231.636719 C 241.703125 230.527344 243.210938 229.394531 244.667969 228.191406 C 245.453125 227.542969 246.210938 226.867188 246.976562 226.1875 C 248.335938 224.984375 249.667969 223.757812 250.949219 222.472656 C 251.683594 221.738281 252.390625 220.976562 253.101562 220.21875 C 254.347656 218.878906 255.5625 217.507812 256.726562 216.089844 C 257.34375 215.335938 257.941406 214.5625 258.535156 213.785156 C 259.71875 212.242188 260.855469 210.660156 261.9375 209.039062 C 262.402344 208.339844 262.855469 207.628906 263.300781 206.914062 C 264.429688 205.113281 265.488281 203.261719 266.488281 201.375 C 266.652344 201.0625 266.851562 200.773438 267.011719 200.460938 L 305.832031 239.257812 Z M 267.847656 249.308594 " fill-opacity="1" fill-rule="nonzero"/></g><path fill="rgb(0%, 0%, 0%)" d="M 247.433594 160.4375 C 247.433594 128.25 221.238281 102.058594 189.039062 102.058594 C 156.832031 102.058594 130.628906 128.246094 130.628906 160.4375 C 130.628906 192.640625 156.832031 218.832031 189.039062 218.832031 C 221.238281 218.835938 247.433594 192.640625 247.433594 160.4375 Z M 140.675781 160.4375 C 140.675781 133.785156 162.371094 112.097656 189.042969 112.097656 C 215.699219 112.097656 237.394531 133.785156 237.394531 160.4375 C 237.394531 187.101562 215.703125 208.796875 189.042969 208.796875 C 162.371094 208.796875 140.675781 187.105469 140.675781 160.4375 Z M 140.675781 160.4375 " fill-opacity="1" fill-rule="nonzero"/><path fill="rgb(0%, 0%, 0%)" d="M 207.925781 191.710938 C 208.96875 191.710938 210.003906 191.386719 210.875 190.753906 C 212.351562 189.679688 213.132812 187.886719 212.910156 186.070312 L 210.636719 167.695312 L 223.273438 154.175781 C 224.519531 152.839844 224.949219 150.9375 224.378906 149.195312 C 223.820312 147.457031 222.351562 146.160156 220.5625 145.816406 L 202.382812 142.300781 L 193.433594 126.101562 C 192.550781 124.5 190.871094 123.507812 189.039062 123.507812 C 187.210938 123.507812 185.527344 124.503906 184.644531 126.101562 L 175.683594 142.300781 L 157.503906 145.816406 C 155.707031 146.160156 154.246094 147.457031 153.679688 149.195312 C 153.117188 150.933594 153.539062 152.839844 154.789062 154.175781 L 167.429688 167.695312 L 165.152344 186.070312 C 164.929688 187.886719 165.707031 189.679688 167.183594 190.753906 C 168.664062 191.824219 170.609375 192.011719 172.261719 191.238281 L 189.035156 183.390625 L 205.796875 191.238281 C 206.476562 191.550781 207.199219 191.710938 207.925781 191.710938 Z M 191.167969 173.296875 C 189.816406 172.667969 188.257812 172.664062 186.910156 173.296875 L 176.234375 178.292969 L 177.679688 166.597656 C 177.867188 165.121094 177.382812 163.640625 176.367188 162.550781 L 168.324219 153.949219 L 179.890625 151.710938 C 181.351562 151.429688 182.613281 150.515625 183.335938 149.210938 L 189.035156 138.90625 L 194.726562 149.210938 C 195.449219 150.511719 196.707031 151.429688 198.167969 151.710938 L 209.738281 153.949219 L 201.695312 162.550781 C 200.679688 163.640625 200.195312 165.121094 200.378906 166.597656 L 201.824219 178.289062 Z M 191.167969 173.296875 " fill-opacity="1" fill-rule="nonzero"/></svg>