<?xml version="1.0" encoding="UTF-8"?><svg xmlns="http://www.w3.org/2000/svg" xmlns:xlink="http://www.w3.org/1999/xlink" width="375" zoomAndPan="magnify" viewBox="0 0 375 374.999991" height="374.999991" preserveAspectRatio="xMidYMid meet" version="1.0"><path fill="rgb(91.758728%, 26.269531%, 20.779419%)" d="M 372.308594 192.144531 L 372.160156 182.847656 L 369.617188 12.035156 L 369.542969 6.800781 L 364.3125 6.726562 L 192.546875 3.585938 L 182.386719 3.363281 L 12.035156 0.222656 L 0 0 L 0.222656 12.035156 L 3.363281 182.847656 L 3.511719 192.144531 L 6.726562 364.164062 L 6.800781 369.394531 L 12.035156 369.46875 L 182.386719 372.011719 L 192.546875 372.160156 L 375.074219 374.925781 Z M 356.316406 182.847656 L 356.164062 192.144531 L 353.773438 353.773438 L 192.546875 356.164062 L 182.386719 356.316406 L 17.414062 358.78125 L 20.480469 192.144531 L 20.628906 182.847656 L 23.542969 23.617188 L 182.386719 20.703125 L 192.546875 20.554688 L 358.78125 17.488281 Z M 356.316406 182.847656 " fill-opacity="1" fill-rule="nonzero"/></svg>