<?xml version="1.0" encoding="UTF-8"?><svg xmlns="http://www.w3.org/2000/svg" xmlns:xlink="http://www.w3.org/1999/xlink" width="375" zoomAndPan="magnify" viewBox="0 0 375 374.999991" height="374.999991" preserveAspectRatio="xMidYMid meet" version="1.0"><defs><clipPath id="clip-0"><path d="M 47.226562 47.226562 L 327.726562 47.226562 L 327.726562 327.726562 L 47.226562 327.726562 Z M 47.226562 47.226562 " clip-rule="nonzero"/></clipPath></defs><path fill="rgb(20.388794%, 65.879822%, 32.548523%)" d="M 372.277344 192.113281 L 372.125 182.886719 L 369.554688 12.175781 L 369.480469 6.882812 L 364.183594 6.808594 L 192.523438 3.628906 L 182.421875 3.402344 L 12.175781 0.226562 L 0 0 L 0.226562 12.175781 L 3.402344 182.886719 L 3.554688 192.113281 L 6.808594 364.03125 L 6.882812 369.328125 L 12.175781 369.402344 L 182.421875 371.972656 L 192.523438 372.125 L 375.074219 374.925781 Z M 356.089844 182.886719 L 355.941406 192.113281 L 353.519531 353.519531 L 192.523438 355.941406 L 182.421875 356.089844 L 17.621094 358.585938 L 20.722656 192.113281 L 20.875 182.886719 L 23.824219 23.902344 L 182.421875 20.949219 L 192.523438 20.800781 L 358.585938 17.699219 Z M 356.089844 182.886719 " fill-opacity="1" fill-rule="nonzero"/><g clip-path="url(#clip-0)"><path fill="rgb(0%, 0%, 0%)" d="M 187.476562 327.726562 C 110.148438 327.726562 47.226562 264.808594 47.226562 187.476562 C 47.226562 110.148438 110.148438 47.226562 187.476562 47.226562 C 264.808594 47.226562 327.726562 110.148438 327.726562 187.476562 C 327.726562 264.808594 264.808594 327.726562 187.476562 327.726562 Z M 187.476562 67.566406 C 121.339844 67.566406 67.546875 121.339844 67.546875 187.476562 C 67.546875 253.597656 121.339844 307.390625 187.476562 307.390625 C 253.597656 307.390625 307.410156 253.597656 307.410156 187.476562 C 307.410156 121.339844 253.597656 67.566406 187.476562 67.566406 Z M 187.476562 67.566406 " fill-opacity="1" fill-rule="nonzero"/></g><path fill="rgb(0%, 0%, 0%)" d="M 190.371094 260.257812 C 189.292969 259.847656 188.128906 259.179688 188.128906 256.359375 C 188.128906 255.191406 188.3125 253.84375 188.722656 252.195312 L 206.4375 166.316406 C 206.832031 164.300781 207.035156 162.191406 207.035156 160.085938 C 207.035156 154.539062 205.324219 150.3125 201.949219 147.515625 C 194.386719 141.300781 181.148438 142.519531 159.128906 149.960938 L 156.992188 150.679688 L 156.113281 161.761719 L 159.8125 161.761719 C 171.023438 161.761719 173.734375 162.636719 174.292969 162.910156 C 175.046875 163.269531 175.460938 163.695312 175.460938 164.960938 C 175.460938 165.660156 175.375 166.449219 175.1875 167.328125 C 174.96875 168.492188 174.707031 169.84375 174.453125 171.296875 L 158.21875 250.171875 C 157.464844 254.140625 157.070312 257.550781 157.070312 260.269531 C 157.070312 266.554688 158.886719 271.410156 162.425781 274.6875 C 165.898438 277.886719 170.65625 279.515625 176.566406 279.515625 C 183.480469 279.515625 192.765625 277.597656 204.929688 273.660156 L 207.105469 272.960938 L 207.980469 261.730469 L 204.308594 261.730469 C 195.988281 261.730469 192.152344 260.925781 190.371094 260.257812 Z M 190.371094 260.257812 " fill-opacity="1" fill-rule="nonzero"/><path fill="rgb(0%, 0%, 0%)" d="M 213.6875 100.25 C 210.347656 97.070312 206.050781 95.4375 200.933594 95.4375 C 195.628906 95.4375 191.140625 97.183594 187.609375 100.609375 C 184.050781 104.054688 182.238281 108.691406 182.238281 114.40625 C 182.238281 119.667969 183.964844 124.03125 187.355469 127.417969 C 190.746094 130.824219 195.09375 132.554688 200.25 132.554688 C 205.507812 132.554688 209.953125 130.722656 213.503906 127.144531 C 217.027344 123.566406 218.808594 118.921875 218.808594 113.328125 C 218.808594 107.867188 217.097656 103.46875 213.6875 100.25 Z M 213.6875 100.25 " fill-opacity="1" fill-rule="nonzero"/></svg>