<?xml version="1.0" encoding="UTF-8"?><svg xmlns="http://www.w3.org/2000/svg" xmlns:xlink="http://www.w3.org/1999/xlink" width="1012.5" zoomAndPan="magnify" viewBox="0 0 1012.5 487.499991" height="487.499991" preserveAspectRatio="xMidYMid meet" version="1.0"><defs><clipPath id="clip-0"><path d="M 7 0 L 1011.730469 0 L 1011.730469 487 L 7 487 Z M 7 0 " clip-rule="nonzero"/></clipPath></defs><g clip-path="url(#clip-0)"><path fill="rgb(91.758728%, 26.269531%, 20.779419%)" d="M 1009.609375 250.476562 L 1009.457031 236.609375 L 1006.917969 12.027344 L 1006.84375 6.796875 L 1001.613281 6.722656 L 527.074219 3.585938 L 491.523438 3.363281 L 19.859375 0.226562 L 7.832031 0 L 8.054688 12.027344 L 11.191406 236.609375 L 11.34375 250.476562 L 14.554688 476.410156 L 14.628906 481.636719 L 19.859375 481.710938 L 491.523438 484.253906 L 527.074219 484.402344 L 1012.371094 487.164062 Z M 993.621094 236.609375 L 993.472656 250.476562 L 991.082031 466.023438 L 527.074219 468.414062 L 491.523438 468.566406 L 25.238281 471.03125 L 28.300781 250.476562 L 28.449219 236.609375 L 31.363281 23.605469 L 491.523438 20.691406 L 527.074219 20.542969 L 996.085938 17.480469 Z M 993.621094 236.609375 " fill-opacity="1" fill-rule="nonzero"/></g></svg>